<svg width="14" height="15" viewBox="0 0 14 15" fill="none" xmlns="http://www.w3.org/2000/svg">
<g clip-path="url(#clip0_1153_2737)">
<path d="M13.8133 2.85359C13.6578 2.72915 13.4867 2.66693 13.3 2.66693C13.1133 2.66693 12.9422 2.72915 12.7867 2.85359L4.43333 11.2536L1.21333 8.03359C1.05778 7.87804 0.886667 7.80026 0.7 7.80026C0.513333 7.80026 0.35 7.87026 0.21 8.01026C0.07 8.15026 0 8.32137 0 8.52359C0 8.72582 0.0622222 8.88915 0.186667 9.01359L3.92 12.7469C4.04444 12.8714 4.20778 12.9336 4.41 12.9336C4.61222 12.9336 4.77556 12.8714 4.9 12.7469L13.8133 3.83359C13.9378 3.70915 14 3.55359 14 3.36693C14 3.18026 13.9378 3.00915 13.8133 2.85359Z" fill="#3BBCA7"/>
</g>
<defs>
<clipPath id="clip0_1153_2737">
<rect width="14" height="14" fill="white" transform="matrix(1 0 0 -1 0 14.7998)"/>
</clipPath>
</defs>
</svg>
