<svg width="36" height="36" viewBox="0 0 36 36" fill="none" xmlns="http://www.w3.org/2000/svg">
<rect width="36" height="36" rx="6" fill="#FF0000" fill-opacity="0.11"/>
<g clip-path="url(#clip0_1201_1574)">
<path d="M18.045 19.2949C17.7758 19.297 17.515 19.3891 17.3043 19.5566C17.0936 19.7241 16.945 19.9574 16.8823 20.2192C16.8196 20.481 16.8463 20.7562 16.9583 21.001C17.0702 21.2459 17.2609 21.4461 17.5 21.5699V22.9999H18.5V21.6149C18.7582 21.5091 18.9716 21.317 19.1039 21.0714C19.2363 20.8257 19.2792 20.5418 19.2255 20.268C19.1718 19.9942 19.0248 19.7476 18.8095 19.5701C18.5942 19.3926 18.324 19.2954 18.045 19.2949Z" fill="#FF0000"/>
<path d="M22 16.4997V14.3597C22.0215 13.2756 21.6127 12.2272 20.863 11.4438C20.1134 10.6605 19.084 10.2059 18 10.1797C16.916 10.2059 15.8866 10.6605 15.137 11.4438C14.3873 12.2272 13.9785 13.2756 14 14.3597V16.4997H12.5V24.9997C12.5 25.2649 12.6054 25.5193 12.7929 25.7068C12.9804 25.8943 13.2348 25.9997 13.5 25.9997H22.5C22.7652 25.9997 23.0196 25.8943 23.2071 25.7068C23.3946 25.5193 23.5 25.2649 23.5 24.9997V16.4997H22ZM15 14.3597C14.9784 13.5408 15.2819 12.7467 15.844 12.1508C16.4061 11.555 17.1813 11.2058 18 11.1797C18.8187 11.2058 19.5939 11.555 20.156 12.1508C20.7181 12.7467 21.0216 13.5408 21 14.3597V16.4997H15V14.3597ZM13.5 24.9997V17.4997H22.5V24.9997H13.5Z" fill="#FF0000"/>
</g>
<defs>
<clipPath id="clip0_1201_1574">
<rect width="18" height="18" fill="white" transform="translate(9 9)"/>
</clipPath>
</defs>
</svg>
