<svg width="38" height="38" viewBox="0 0 38 38" fill="none" xmlns="http://www.w3.org/2000/svg">
<g id="dashicons:portfolio">
<path id="Vector" d="M7.59977 9.5002H1.48177C0.778768 9.5002 0.0757678 10.1082 0.170768 11.0962L3.13477 30.0772C3.13477 30.0772 6.64977 16.0932 7.33377 12.7302C7.54277 11.7232 8.49277 11.4002 9.19577 11.4002H18.9998C18.9998 11.4002 17.6698 7.4482 17.5368 7.0112C17.3088 6.1752 16.8908 5.7002 16.0548 5.7002H9.76577C9.08177 5.7002 8.43577 6.1372 8.24577 6.9162C8.07477 7.6762 7.59977 9.5002 7.59977 9.5002ZM16.8718 9.5002H9.27177C9.27177 9.5002 10.0698 7.6002 10.9248 7.6002H14.9718C15.8838 7.6002 16.8718 9.5002 16.8718 9.5002ZM5.07277 30.8752C4.48377 31.7682 3.62877 32.3002 2.67877 32.3002H32.5658C33.5918 32.3002 34.3138 31.7112 34.5228 30.7232C35.3588 26.5622 37.7148 14.6872 37.7148 14.6872C37.8478 13.7372 37.1448 13.3002 36.5368 13.3002H30.3998V10.5072C30.3998 10.2032 29.9058 9.5002 29.1458 9.5002H22.0018C21.0138 9.5002 20.3488 10.6022 20.3488 10.6022L18.9998 13.3002H10.6208C10.0128 13.3002 9.42377 13.6612 9.30977 14.2502C9.30977 14.2502 6.28877 26.9802 6.04177 28.1772C5.90877 28.8802 5.62377 30.0582 5.07277 30.8752ZM29.2218 13.3002H20.8998C20.8998 13.3002 22.0018 11.4002 23.0468 11.4002H27.3978C28.7468 11.4002 29.2218 13.3002 29.2218 13.3002Z" fill="#3BBCA7"/>
</g>
</svg>
