<svg width="41" height="40" viewBox="0 0 41 40" fill="none" xmlns="http://www.w3.org/2000/svg">
<rect x="0.178711" width="40.631" height="40" rx="20" fill="#3BBCA7"/>
<path d="M12.9346 29C12.3846 29 11.9136 28.804 11.5216 28.412C11.1296 28.02 10.9339 27.5493 10.9346 27V16C10.9346 15.45 11.1306 14.979 11.5226 14.587C11.9146 14.195 12.3852 13.9993 12.9346 14H16.9346V12C16.9346 11.45 17.1306 10.979 17.5226 10.587C17.9146 10.195 18.3852 9.99934 18.9346 10H22.9346C23.4846 10 23.9556 10.196 24.3476 10.588C24.7396 10.98 24.9352 11.4507 24.9346 12V14H28.9346C29.4846 14 29.9556 14.196 30.3476 14.588C30.7396 14.98 30.9352 15.4507 30.9346 16V20.275C30.6346 20.0583 30.3179 19.8707 29.9846 19.712C29.6512 19.5533 29.3012 19.416 28.9346 19.3V16H12.9346V27H20.0096C20.0596 27.35 20.1346 27.6917 20.2346 28.025C20.3346 28.3583 20.4596 28.6833 20.6096 29H12.9346ZM18.9346 14H22.9346V12H18.9346V14ZM26.9346 31C25.5512 31 24.3719 30.5123 23.3966 29.537C22.4212 28.5617 21.9339 27.3827 21.9346 26C21.9346 24.6167 22.4222 23.4373 23.3976 22.462C24.3729 21.4867 25.5519 20.9993 26.9346 21C28.3179 21 29.4972 21.4877 30.4726 22.463C31.4479 23.4383 31.9352 24.6173 31.9346 26C31.9346 27.3833 31.4469 28.5627 30.4716 29.538C29.4962 30.5133 28.3172 31.0007 26.9346 31ZM27.4346 25.8V23H26.4346V26.2L28.5846 28.35L29.2846 27.65L27.4346 25.8Z" fill="white"/>
</svg>
