<svg width="17" height="17" viewBox="0 0 17 17" fill="none" xmlns="http://www.w3.org/2000/svg">
<g clip-path="url(#clip0_1367_1145)">
<path d="M13.3572 10.9294L15.7857 10.3223L16.3929 12.7508" stroke="#47A99E" stroke-width="1.71429" stroke-linecap="round" stroke-linejoin="round"/>
<path d="M15.7858 10.3214C15.2464 11.8497 14.2667 13.1842 12.9702 14.1566C11.6736 15.129 10.1182 15.6959 8.50004 15.7857C7.00417 15.786 5.54448 15.3258 4.31923 14.4677C3.09398 13.6096 2.16255 12.3951 1.65146 10.9893M3.64289 6.07143L1.21432 6.67857L0.607178 4.25" stroke="#47A99E" stroke-width="1.71429" stroke-linecap="round" stroke-linejoin="round"/>
<path d="M1.21436 6.67913C2.23436 3.88627 5.36721 1.21484 8.50007 1.21484C10.0032 1.21907 11.4683 1.68812 12.6944 2.55769C13.9205 3.42727 14.8476 4.65479 15.3486 6.07199" stroke="#47A99E" stroke-width="1.71429" stroke-linecap="round" stroke-linejoin="round"/>
</g>
<defs>
<clipPath id="clip0_1367_1145">
<rect width="17" height="17" fill="white"/>
</clipPath>
</defs>
</svg>
