<svg width="38" height="38" viewBox="0 0 38 38" fill="none" xmlns="http://www.w3.org/2000/svg">
<g id="mdi:about">
<path id="Vector" d="M20.5827 14.2503H17.416V11.0837H20.5827M20.5827 26.917H17.416V17.417H20.5827M18.9994 3.16699C16.9201 3.16699 14.8612 3.57653 12.9402 4.37223C11.0192 5.16793 9.27375 6.33421 7.80349 7.80447C4.83417 10.7738 3.16602 14.8011 3.16602 19.0003C3.16602 23.1996 4.83417 27.2269 7.80349 30.1962C9.27375 31.6665 11.0192 32.8327 12.9402 33.6284C14.8612 34.4241 16.9201 34.8337 18.9994 34.8337C23.1986 34.8337 27.2259 33.1655 30.1952 30.1962C33.1645 27.2269 34.8327 23.1996 34.8327 19.0003C34.8327 16.9211 34.4232 14.8622 33.6275 12.9412C32.8318 11.0202 31.6655 9.27473 30.1952 7.80447C28.725 6.33421 26.9795 5.16793 25.0585 4.37223C23.1375 3.57653 21.0786 3.16699 18.9994 3.16699Z" fill="#3BBCA7"/>
</g>
</svg>
