<svg width="31" height="31" viewBox="0 0 31 31" fill="none" xmlns="http://www.w3.org/2000/svg">
<circle cx="15.5" cy="15.5" r="15.5" fill="#47A99E" fill-opacity="0.12"/>
<path d="M23.6508 15.8784C22.9756 14.1319 21.8034 12.6215 20.2791 11.5339C18.7549 10.4463 16.9453 9.82916 15.0741 9.75879C13.2029 9.82916 11.3934 10.4463 9.86911 11.5339C8.34484 12.6215 7.17266 14.1319 6.49746 15.8784C6.45186 16.0045 6.45186 16.1427 6.49746 16.2688C7.17266 18.0153 8.34484 19.5257 9.86911 20.6133C11.3934 21.7009 13.2029 22.3181 15.0741 22.3884C16.9453 22.3181 18.7549 21.7009 20.2791 20.6133C21.8034 19.5257 22.9756 18.0153 23.6508 16.2688C23.6964 16.1427 23.6964 16.0045 23.6508 15.8784ZM15.0741 21.2403C12.0315 21.2403 8.81672 18.9842 7.65135 16.0736C8.81672 13.163 12.0315 10.9069 15.0741 10.9069C18.1167 10.9069 21.3315 13.163 22.4969 16.0736C21.3315 18.9842 18.1167 21.2403 15.0741 21.2403Z" fill="#47A99E"/>
<path d="M15.0741 12.6299C14.3928 12.6299 13.7269 12.8319 13.1605 13.2104C12.594 13.5889 12.1525 14.1268 11.8918 14.7562C11.6311 15.3856 11.5629 16.0781 11.6958 16.7463C11.8287 17.4145 12.1568 18.0282 12.6385 18.5099C13.1202 18.9916 13.734 19.3197 14.4021 19.4526C15.0703 19.5855 15.7628 19.5173 16.3922 19.2566C17.0216 18.9959 17.5596 18.5544 17.938 17.988C18.3165 17.4215 18.5185 16.7556 18.5185 16.0743C18.5185 15.1608 18.1556 14.2847 17.5097 13.6387C16.8637 12.9928 15.9876 12.6299 15.0741 12.6299ZM15.0741 18.3706C14.6199 18.3706 14.176 18.2359 13.7983 17.9836C13.4207 17.7313 13.1264 17.3727 12.9526 16.9531C12.7788 16.5335 12.7333 16.0718 12.8219 15.6263C12.9105 15.1809 13.1292 14.7717 13.4504 14.4506C13.7715 14.1295 14.1807 13.9108 14.6261 13.8222C15.0715 13.7336 15.5332 13.779 15.9528 13.9528C16.3724 14.1266 16.7311 14.4209 16.9834 14.7986C17.2357 15.1762 17.3704 15.6202 17.3704 16.0743C17.3704 16.6833 17.1285 17.2674 16.6978 17.6981C16.2672 18.1287 15.6831 18.3706 15.0741 18.3706Z" fill="#47A99E"/>
</svg>
